<?xml version="1.0" encoding="UTF-8"?>
<svg id="Layer_1" xmlns="http://www.w3.org/2000/svg" xmlns:xlink="http://www.w3.org/1999/xlink" version="1.1" viewBox="0 0 678 339">
  <!-- Generator: Adobe Illustrator 29.1.0, SVG Export Plug-In . SVG Version: 2.1.0 Build 142)  -->
  <defs>
    <style>
      .st0 {
        fill: none;
      }

      .st1 {
        fill: #fff;
      }

      .st2 {
        clip-path: url(#clippath);
      }
    </style>
    <clipPath id="clippath">
      <rect class="st0" width="678" height="339"/>
    </clipPath>
  </defs>
  <g class="st2">
    <g>
      <path class="st1" d="M396.5,0h161.5c65.5,0,118.6,53.1,118.6,118.6v154h-66.3V118.6c0-1.6,0-3.1-.2-4.7l-161.5,158.7c.5,0,1.1,0,1.6,0h160v62.6h-160c-65.5,0-120-53.6-120-119.1V62.5h66.3v153.6c0,3,.2,5.9.7,8.7l165-162.2c-1.4-.1-2.8-.2-4.2-.2h-161.5V0Z"/>
      <path class="st1" d="M233.4,323.7L0,62.5h93.9l137,153.3V62.5h70v235.4c0,35.5-43.9,52.3-67.5,25.8Z"/>
    </g>
  </g>
</svg>
